<svg version="1.1" id="Layer_1" xmlns="http://www.w3.org/2000/svg" xmlns:xlink="http://www.w3.org/1999/xlink" x="0px" y="0px"
	 viewBox="0 0 512 512" style="enable-background:new 0 0 512 512;" xml:space="preserve">
<path style="fill:#FED766;" d="M403.112,108.888L403.112,108.888c-17.108-17.108-17.108-44.846,0-61.954l38.72-38.72l15.488,46.464
	l46.466,15.489l-38.72,38.72C447.958,125.996,420.22,125.996,403.112,108.888z"/>
<path style="fill:#D6A154;" d="M403.112,108.888l54.208-54.208l46.466,15.488l-38.72,38.72
	C447.958,125.996,420.22,125.996,403.112,108.888L403.112,108.888z"/>
<path style="fill:#E8BA52;" d="M438.075,260.107c0,102.825-83.357,186.182-186.182,186.182S65.711,362.932,65.711,260.107
	S149.068,73.925,251.893,73.925S438.075,157.282,438.075,260.107z"/>
<path style="fill:#FFD880;" d="M405.219,260.107c0,84.68-68.646,153.326-153.326,153.326S98.567,344.787,98.567,260.107
	s68.646-153.326,153.326-153.326S405.219,175.427,405.219,260.107z"/>
<path style="fill:#FFFFFF;" d="M159.615,382.828c-1.624,1.933-3.95,2.93-6.293,2.93c-1.865,0-3.74-0.632-5.28-1.925
	c-36.662-30.803-57.689-75.899-57.689-123.725s21.026-92.922,57.689-123.725c3.473-2.919,8.654-2.467,11.573,1.004
	c2.919,3.473,2.469,8.654-1.004,11.573c-32.939,27.675-51.83,68.186-51.83,111.148s18.891,83.474,51.83,111.148
	C162.083,374.174,162.533,379.355,159.615,382.828z"/>
<path style="fill:#FC8059;" d="M273.797,260.107c0,12.097-9.806,21.904-21.904,21.904c-12.097,0-21.904-9.806-21.904-21.904
	s9.806-21.904,21.904-21.904C263.991,238.203,273.797,248.011,273.797,260.107z M503.786,260.107c0,4.536-3.678,8.214-8.214,8.214
	H350.117c-3.951,47.884-42.125,86.059-90.01,90.009v145.456c0,4.536-3.678,8.214-8.214,8.214s-8.214-3.678-8.214-8.214V358.331
	c-47.884-3.951-86.059-42.125-90.009-90.009H8.214c-4.536,0-8.214-3.678-8.214-8.214c0-4.536,3.678-8.214,8.214-8.214h145.455
	c3.951-47.884,42.125-86.059,90.009-90.009V16.428c0-4.536,3.678-8.214,8.214-8.214s8.214,3.678,8.214,8.214v145.456
	c47.884,3.951,86.059,42.125,90.01,90.009h145.456C500.108,251.893,503.786,255.571,503.786,260.107z M295.701,260.107
	c0-24.194-19.614-43.807-43.807-43.807s-43.807,19.614-43.807,43.807s19.614,43.807,43.807,43.807S295.701,284.302,295.701,260.107z
	"/>
<path style="fill:#4C4C4C;" d="M227.124,444.839c-0.707,3.979-4.173,6.776-8.077,6.776c-0.479,0-0.963-0.043-1.449-0.129
	c-79.756-14.2-142.883-77.327-157.084-157.083c-0.796-4.466,2.181-8.732,6.647-9.527c4.461-0.794,8.732,2.181,9.526,6.647
	c12.999,73.006,70.784,130.791,143.789,143.789C224.944,436.108,227.919,440.373,227.124,444.839z M67.161,235.338
	c0.486,0.087,0.971,0.129,1.449,0.129c3.904,0,7.37-2.797,8.077-6.776c12.999-73.006,70.784-130.791,143.789-143.789
	c4.466-0.795,7.443-5.061,6.647-9.526c-0.795-4.467-5.064-7.44-9.526-6.647c-79.756,14.2-142.883,77.327-157.084,157.083
	C59.718,230.278,62.695,234.543,67.161,235.338z M436.625,284.876c-4.459-0.793-8.731,2.182-9.526,6.647
	c-12.999,73.006-70.784,130.792-143.789,143.79c-4.466,0.795-7.443,5.061-6.647,9.527c0.707,3.979,4.172,6.776,8.077,6.776
	c0.479,0,0.963-0.043,1.449-0.129c79.756-14.2,142.883-77.328,157.084-157.084C444.068,289.937,441.091,285.671,436.625,284.876z
	 M358.674,260.107c0-16.667-3.735-32.634-11.102-47.459c-2.02-4.063-6.949-5.719-11.012-3.701
	c-4.062,2.018-5.719,6.948-3.701,11.011c6.228,12.533,9.386,26.041,9.386,40.15c0,49.821-40.533,90.353-90.353,90.353
	s-90.353-40.532-90.353-90.353s40.534-90.354,90.354-90.354c14.609,0,28.546,3.376,41.427,10.034
	c4.029,2.081,8.986,0.505,11.068-3.525c2.083-4.03,0.505-8.986-3.524-11.068c-15.019-7.765-31.954-11.869-48.97-11.869
	c-58.879,0-106.781,47.901-106.781,106.781s47.901,106.781,106.781,106.781S358.674,318.987,358.674,260.107z M509.595,75.975
	l-38.72,38.72c-9.826,9.826-22.889,15.237-36.785,15.237c-11.117,0-21.702-3.464-30.523-9.882l-8.565,8.565
	c24.5,26.644,41.671,60.121,48.271,97.195c0.796,4.466-2.181,8.732-6.647,9.527c-4.463,0.796-8.732-2.181-9.526-6.647
	c-6.001-33.696-21.543-64.153-43.717-88.457l-89.372,89.371c6.229,8.576,9.904,19.117,9.904,30.502
	c0,28.684-23.337,52.021-52.021,52.021s-52.021-23.337-52.021-52.021s23.336-52.021,52.02-52.021
	c11.386,0,21.927,3.675,30.502,9.903l89.371-89.371c-24.303-22.174-54.76-37.717-88.456-43.717
	c-4.466-0.795-7.443-5.061-6.647-9.527c0.795-4.466,5.069-7.441,9.526-6.647c37.074,6.601,70.552,23.771,97.196,48.273l8.564-8.565
	c-6.417-8.821-9.881-19.406-9.881-30.524c0-13.896,5.41-26.959,15.236-36.784l38.72-38.72c2.013-2.012,4.921-2.841,7.696-2.186
	c2.77,0.654,5.004,2.696,5.905,5.397l11.286,33.857l26.115-26.116c3.207-3.207,8.407-3.209,11.617,0
	c3.208,3.208,3.208,8.409,0,11.616L472.527,51.09l33.857,11.285c2.701,0.9,4.742,3.134,5.397,5.905
	C512.434,71.05,511.608,73.963,509.595,75.975z M287.487,260.107c0-6.844-1.941-13.243-5.303-18.675l-24.482,24.483
	c-3.21,3.208-8.41,3.207-11.617,0c-3.208-3.208-3.208-8.409,0-11.616l24.483-24.483c-5.432-3.361-11.831-5.303-18.675-5.303
	c-19.627,0-35.594,15.968-35.594,35.594s15.967,35.594,35.594,35.594S287.487,279.734,287.487,260.107z M403.788,96.596
	l44.135-44.135l-9.679-29.041l-29.323,29.324C397.04,64.623,395.33,82.88,403.788,96.596z M488.581,73.757l-29.04-9.679
	l-44.135,44.135c13.714,8.459,31.972,6.749,43.851-5.132L488.581,73.757z"/>
</svg>
